# Blender 4.2.1 LTS
# www.blender.org
mtllib Chess Rook.mtl
o LPRook
v -21.782696 4.106379 21.000000
v -21.553450 4.106379 20.446550
v -21.000000 4.106379 20.217302
v -20.446550 4.106379 20.446550
v -20.217302 4.106379 21.000000
v -20.446550 4.106379 21.553450
v -21.000000 4.106379 21.782696
v -21.553452 4.106379 21.553450
v -22.322830 1.280938 21.000000
v -21.935381 1.280938 20.064617
v -21.000000 1.280938 19.677170
v -20.064617 1.280938 20.064617
v -19.677170 1.280938 21.000000
v -20.064617 1.280938 21.935383
v -21.000002 1.280938 22.322830
v -21.935383 1.280938 21.935381
v -22.343876 0.600516 21.000000
v -22.500000 0.220404 21.000000
v -22.060659 0.220404 19.939341
v -21.950264 0.600516 20.049736
v -21.000000 0.220404 19.500000
v -21.000000 0.600516 19.656122
v -19.939339 0.220404 19.939341
v -20.049734 0.600516 20.049736
v -19.500000 0.220404 21.000000
v -19.656122 0.600516 21.000000
v -19.939341 0.220404 22.060661
v -20.049736 0.600516 21.950266
v -21.000002 0.220404 22.500000
v -21.000002 0.600516 22.343878
v -22.060661 0.220404 22.060659
v -21.950266 0.600516 21.950264
v -22.144001 0.682226 21.000000
v -21.808929 0.682226 20.191069
v -21.000000 0.682226 19.855999
v -20.191069 0.682226 20.191069
v -19.855999 0.682226 21.000000
v -20.191071 0.682226 21.808931
v -21.000000 0.682226 22.144001
v -21.808931 0.682226 21.808929
v -22.419094 1.103530 21.000000
v -22.003450 1.103530 19.996550
v -21.000000 1.103530 19.580906
v -19.996548 1.103530 19.996550
v -19.580906 1.103530 21.000000
v -19.996550 1.103530 22.003452
v -21.000002 1.103530 22.419094
v -22.003452 1.103530 22.003448
v -21.965954 1.869001 21.000000
v -21.683033 1.869001 20.316967
v -21.000000 1.869001 20.034044
v -20.316967 1.869001 20.316967
v -20.034044 1.869001 21.000000
v -20.316967 1.869001 21.683033
v -21.000000 1.869001 21.965956
v -21.683035 1.869001 21.683033
v -20.230703 4.265436 20.230703
v -21.000000 4.265436 19.912052
v -19.912052 4.265436 21.000000
v -21.769295 4.265436 20.230703
v -22.087948 4.265436 21.000000
v -20.230705 4.265436 21.769297
v -21.000000 4.265436 22.087948
v -21.769297 4.265436 21.769295
v -20.445007 4.610059 20.445007
v -21.000000 4.610059 20.215122
v -20.215120 4.610059 21.000000
v -21.554993 4.610059 20.445007
v -21.784878 4.610059 21.000000
v -20.445007 4.610059 21.554993
v -21.000000 4.610059 21.784878
v -21.554995 4.610059 21.554993
v -20.230703 4.610059 20.230703
v -21.000000 4.610059 19.912052
v -19.912052 4.610059 21.000000
v -21.769295 4.610059 20.230703
v -22.087948 4.610059 21.000000
v -20.230705 4.610059 21.769297
v -21.000000 4.610059 22.087948
v -21.769297 4.610059 21.769295
v -20.230703 4.840059 20.230703
v -21.000000 4.840059 19.912052
v -21.769295 4.840059 20.230703
v -22.087948 4.840059 21.000000
v -20.230705 4.840059 21.769297
v -19.912052 4.840059 21.000000
v -21.769297 4.840059 21.769295
v -21.000000 4.840059 22.087948
v -20.445007 4.840059 20.445007
v -21.000000 4.840059 20.215122
v -21.554993 4.840059 20.445007
v -21.784878 4.840059 21.000000
v -20.445007 4.840059 21.554993
v -20.215120 4.840059 21.000000
v -21.554995 4.840059 21.554993
v -21.000000 4.840059 21.784878
v -20.445007 4.440059 20.445007
v -21.000000 4.440059 20.215122
v -20.215120 4.440059 21.000000
v -21.554993 4.440059 20.445007
v -21.784878 4.440059 21.000000
v -20.445007 4.440059 21.554993
v -21.000000 4.440059 21.784878
v -21.554995 4.440059 21.554993
vn -0.8345 -0.5510 -0.0000
vn -0.5901 -0.5510 -0.5901
vn -0.0000 -0.5510 -0.8345
vn 0.5901 -0.5510 -0.5901
vn 0.8345 -0.5510 -0.0000
vn 0.5901 -0.5510 0.5901
vn -0.0000 -0.5510 0.8345
vn -0.5901 -0.5510 0.5901
vn -0.8686 0.4955 -0.0000
vn -0.6142 0.4955 -0.6142
vn -0.0000 0.4955 -0.8686
vn 0.6142 0.4955 -0.6142
vn 0.8686 0.4955 -0.0000
vn 0.6142 0.4955 0.6142
vn -0.0000 0.4955 0.8686
vn -0.6142 0.4955 0.6142
vn -0.7484 0.6632 -0.0000
vn -0.8775 -0.4795 -0.0000
vn -0.6205 -0.4795 -0.6205
vn -0.5292 0.6632 -0.5292
vn -0.0000 -0.4795 -0.8775
vn -0.0000 0.6632 -0.7484
vn 0.6205 -0.4795 -0.6205
vn 0.5292 0.6632 -0.5292
vn 0.8775 -0.4795 -0.0000
vn 0.7484 0.6632 -0.0000
vn 0.6205 -0.4795 0.6205
vn 0.5292 0.6632 0.5292
vn -0.0000 -0.4795 0.8775
vn -0.0000 0.6632 0.7484
vn -0.6205 -0.4795 0.6205
vn -0.5292 0.6632 0.5292
vn -0.9293 0.3693 -0.0000
vn -0.6571 0.3693 -0.6571
vn -0.0000 0.3693 -0.9293
vn 0.6571 0.3693 -0.6571
vn 0.9293 0.3693 -0.0000
vn 0.6571 0.3693 0.6571
vn -0.0000 0.3693 0.9293
vn -0.6571 0.3693 0.6571
vn -0.9993 -0.0363 -0.0000
vn -0.7066 -0.0363 -0.7066
vn -0.0000 -0.0363 -0.9993
vn 0.7066 -0.0363 -0.7066
vn 0.9993 -0.0363 -0.0000
vn 0.7066 -0.0363 0.7066
vn -0.0000 -0.0363 0.9993
vn -0.7066 -0.0363 0.7066
vn -0.9453 0.3263 -0.0000
vn -0.6684 0.3263 -0.6684
vn -0.0000 0.3263 -0.9453
vn 0.6684 0.3263 -0.6684
vn 0.9453 0.3263 -0.0000
vn 0.6684 0.3263 0.6684
vn -0.0000 0.3263 0.9453
vn -0.6684 0.3263 0.6684
vn 0.6244 -0.4693 -0.6244
vn -0.0000 -0.4693 -0.8831
vn 0.8831 -0.4693 -0.0000
vn -0.6244 -0.4693 -0.6244
vn -0.8831 -0.4693 -0.0000
vn 0.6244 -0.4693 0.6244
vn -0.0000 -0.4693 0.8831
vn -0.6244 -0.4693 0.6244
vn -0.2940 0.3742 0.8795
vn -0.4140 0.3742 0.8298
vn -0.8298 0.3742 -0.4140
vn 0.8795 0.3742 0.2940
vn 0.8298 0.3742 0.4140
vn -0.8795 0.3742 -0.2940
vn 0.4140 0.3742 -0.8298
vn 0.2940 0.3742 -0.8795
vn 0.8159 0.2554 -0.5187
vn -0.2102 0.2554 -0.9437
vn 0.9437 0.2554 -0.2102
vn -0.5187 0.2554 -0.8159
vn -0.9437 0.2554 0.2102
vn 0.5187 0.2554 0.8159
vn 0.2102 0.2554 0.9437
vn -0.8159 0.2554 0.5187
vn 0.8129 0.5594 -0.1617
vn -0.4605 0.5594 -0.6892
vn -0.1617 0.5594 -0.8129
vn -0.6892 0.5594 0.4605
vn 0.1617 0.5594 0.8129
vn 0.6892 0.5594 -0.4605
vn -0.8129 0.5594 0.1617
vn 0.4605 0.5594 0.6892
vn 0.1559 0.6009 0.7840
vn -0.6646 0.6009 0.4441
vn 0.7840 0.6009 -0.1559
vn 0.4441 0.6009 0.6646
vn -0.7840 0.6009 0.1559
vn -0.4441 0.6009 -0.6646
vn -0.1559 0.6009 -0.7840
vn 0.6646 0.6009 -0.4441
vn -0.5490 0.6303 0.5490
vn -0.0000 0.6303 0.7764
vn -0.7764 0.6303 -0.0000
vn 0.5490 0.6303 0.5490
vn 0.7764 0.6303 -0.0000
vn -0.5490 0.6303 -0.5490
vn -0.0000 0.6303 -0.7764
vn 0.5490 0.6303 -0.5490
s 1
usemtl White_Pieces
f 10//10 50//50 51//51 11//11
f 15//15 55//55 56//56 16//16
f 14//14 54//54 55//55 15//15
f 9//9 49//49 50//50 10//10
f 16//16 56//56 49//49 9//9
f 27//27 28//28 30//30 29//29
f 32//32 40//40 33//33 17//17
f 17//17 33//33 34//34 20//20
f 13//13 53//53 54//54 14//14
f 42//42 10//10 11//11 43//43
f 41//41 9//9 10//10 42//42
f 12//12 52//52 53//53 13//13
f 43//43 11//11 12//12 44//44
f 25//25 26//26 28//28 27//27
f 28//28 38//38 39//39 30//30
f 30//30 39//39 40//40 32//32
f 48//48 16//16 9//9 41//41
f 45//45 13//13 14//14 46//46
f 44//44 12//12 13//13 45//45
f 47//47 15//15 16//16 48//48
f 46//46 14//14 15//15 47//47
f 23//23 24//24 26//26 25//25
f 24//24 36//36 37//37 26//26
f 26//26 37//37 38//38 28//28
f 19//19 20//20 22//22 21//21
f 35//35 43//43 44//44 36//36
f 40//40 48//48 41//41 33//33
f 21//21 22//22 24//24 23//23
f 34//34 42//42 43//43 35//35
f 33//33 41//41 42//42 34//34
f 18//18 17//17 20//20 19//19
f 38//38 46//46 47//47 39//39
f 39//39 47//47 48//48 40//40
f 25//25 27//27 29//29 31//31 18//18 19//19 21//21 23//23
f 49//49 1//1 2//2 50//50
f 56//56 8//8 1//1 49//49
f 51//51 3//3 4//4 52//52
f 50//50 2//2 3//3 51//51
f 31//31 32//32 17//17 18//18
f 36//36 44//44 45//45 37//37
f 37//37 45//45 46//46 38//38
f 1//1 8//8 64//64 61//61
f 55//55 7//7 8//8 56//56
f 52//52 4//4 5//5 53//53
f 11//11 51//51 52//52 12//12
f 54//54 6//6 7//7 55//55
f 53//53 5//5 6//6 54//54
f 29//29 30//30 32//32 31//31
f 20//20 34//34 35//35 22//22
f 22//22 35//35 36//36 24//24
f 61//61 64//64 80//80 77//77
f 7//7 6//6 62//62 63//63
f 8//8 7//7 63//63 64//64
f 3//3 2//2 60//60 58//58
f 6//6 5//5 59//59 62//62
f 2//2 1//1 61//61 60//60
f 5//5 4//4 57//57 59//59
f 4//4 3//3 58//58 57//57
f 72//72 71//71 103//103 104//104
f 63//63 62//62 78//78 79//79
f 60//60 61//61 77//77 76//76
f 59//59 57//57 73//73 75//75
f 64//64 63//63 79//79 80//80
f 62//62 59//59 75//75 78//78
f 58//58 60//60 76//76 74//74
f 57//57 58//58 74//74 73//73
f 79//79 71//71 96//96 88//88
f 65//65 67//67 75//75 73//73
f 68//68 66//66 74//74 76//76
f 73//73 74//74 82//82 81//81
f 71//71 72//72 95//95 96//96
f 70//70 71//71 79//79 78//78
f 70//70 78//78 85//85 93//93
f 72//72 69//69 77//77 80//80
f 90//90 89//89 81//81 82//82
f 92//92 91//91 83//83 84//84
f 94//94 93//93 85//85 86//86
f 96//96 95//95 87//87 88//88
f 66//66 65//65 89//89 90//90
f 72//72 80//80 87//87 95//95
f 74//74 66//66 90//90 82//82
f 65//65 73//73 81//81 89//89
f 76//76 77//77 84//84 83//83
f 75//75 67//67 94//94 86//86
f 78//78 75//75 86//86 85//85
f 69//69 68//68 91//91 92//92
f 68//68 76//76 83//83 91//91
f 67//67 70//70 93//93 94//94
f 77//77 69//69 92//92 84//84
f 80//80 79//79 88//88 87//87
f 97//97 98//98 100//100 101//101 104//104 103//103 102//102 99//99
f 70//70 67//67 99//99 102//102
f 66//66 68//68 100//100 98//98
f 65//65 66//66 98//98 97//97
f 69//69 72//72 104//104 101//101
f 71//71 70//70 102//102 103//103
f 68//68 69//69 101//101 100//100
f 67//67 65//65 97//97 99//99
