# Blender 4.2.1 LTS
# www.blender.org
mtllib Chess King.mtl
o King
v -0.582842 6.064275 0.582842
v -0.658679 6.007398 0.658676
v -0.000001 6.007398 0.931511
v -0.000000 6.064275 0.824263
v -0.000000 7.481133 1.326231
v -0.937787 7.481133 0.937787
v -0.824263 6.064275 -0.000000
v -0.931511 6.007398 -0.000000
v -0.699519 5.870085 0.699517
v -0.000001 5.870085 0.989268
v 0.658677 6.007398 0.658678
v 0.582842 6.064275 0.582842
v -1.326231 7.481133 -0.000000
v 0.937787 7.481133 0.937787
v -0.157758 7.730866 0.157758
v -0.000000 7.730866 0.223103
v -0.582842 6.064275 -0.582842
v -0.658678 6.007398 -0.658678
v -0.989268 5.870085 -0.000000
v -1.023826 5.632906 1.023823
v -0.000002 5.632906 1.447906
v 0.699517 5.870085 0.699519
v 0.931510 6.007398 0.000000
v 0.824263 6.064275 -0.000000
v -0.937787 7.481133 -0.937787
v -0.223103 7.730866 -0.000000
v 1.326231 7.481133 0.000000
v 0.157758 7.730866 0.157758
v 0.000000 6.064275 -0.824263
v -0.000000 6.007398 -0.931511
v -0.699518 5.870085 -0.699518
v -1.447907 5.632906 -0.000000
v -0.542928 5.411032 0.542925
v -0.000001 5.411032 0.767814
v 1.023824 5.632906 1.023825
v 0.989268 5.870085 0.000000
v 0.658677 6.007398 -0.658678
v 0.582842 6.064275 -0.582842
v 0.000000 7.481133 -1.326231
v -0.157758 7.730866 -0.157758
v 0.937787 7.481133 -0.937787
v 0.223103 7.730866 -0.000000
v -0.000000 5.870085 -0.989268
v -1.023824 5.632906 -1.023825
v -0.767814 5.411032 -0.000000
v -0.794916 1.958073 0.794913
v -0.000002 1.958073 1.124178
v 0.542926 5.411032 0.542927
v 1.447906 5.632906 0.000000
v 0.699518 5.870085 -0.699518
v -0.000000 7.730866 -0.223103
v 0.157758 7.730866 -0.157758
v -0.000000 5.632906 -1.447906
v -0.542927 5.411032 -0.542927
v -1.124179 1.958073 -0.000000
v -0.000002 1.866160 1.387390
v -0.981035 1.866160 0.981031
v 0.794913 1.958073 0.794915
v 0.767813 5.411032 0.000000
v 1.023824 5.632906 -1.023824
v -0.000000 5.411032 -0.767814
v -0.794914 1.958073 -0.794914
v -1.387390 1.866160 -0.000000
v -0.000002 1.600718 1.543500
v -1.091421 1.600718 1.091418
v 0.981032 1.866160 0.981034
v 1.124178 1.958073 0.000000
v 0.542926 5.411032 -0.542927
v -0.000000 1.958073 -1.124179
v -0.981033 1.866160 -0.981033
v -1.543500 1.600718 -0.000000
v -0.000002 1.194015 2.128641
v -1.505178 1.194015 1.505174
v 1.091418 1.600718 1.091420
v 1.387390 1.866160 0.000000
v 0.794914 1.958073 -0.794914
v -0.000000 1.866160 -1.387390
v -1.091419 1.600718 -1.091420
v -2.128641 1.194015 -0.000000
v -0.000002 0.697051 1.716001
v -1.213398 0.697051 1.213394
v 1.505175 1.194015 1.505177
v 1.543500 1.600718 0.000001
v 0.981033 1.866160 -0.981033
v -0.000000 1.600718 -1.543500
v -1.505176 1.194015 -1.505176
v -1.716002 0.697051 -0.000000
v -0.000002 0.573722 1.994006
v -1.409978 0.573722 1.409974
v 1.213395 0.697051 1.213397
v 2.128641 1.194015 0.000001
v 1.091419 1.600718 -1.091419
v -0.000000 1.194015 -2.128640
v -1.213396 0.697051 -1.213396
v -1.994006 0.573722 -0.000000
v -0.000002 -0.000000 2.250000
v -1.590992 -0.000000 1.590988
v 1.409975 0.573722 1.409977
v 1.716001 0.697051 0.000001
v 1.505176 1.194015 -1.505176
v -0.000000 0.697051 -1.716001
v -1.409975 0.573722 -1.409976
v -2.250000 -0.000000 -0.000000
v 2.250000 -0.000000 0.000001
v 1.590989 -0.000000 1.590991
v -1.590990 -0.000000 -1.590990
v -0.000000 -0.000000 -2.250000
v 1.590990 -0.000000 -1.590990
v 1.994007 0.573722 0.000001
v 1.213396 0.697051 -1.213396
v -0.000000 0.573722 -1.994007
v 1.409976 0.573722 -1.409975
v -0.000000 7.733693 0.235848
v -0.000000 7.860001 0.333539
v -0.235848 7.860001 0.235848
v -0.166770 7.733693 0.166769
v 0.166769 7.733693 0.166769
v 0.235848 7.860001 0.235848
v -0.000000 8.660108 0.209055
v -0.147824 8.660108 0.147824
v -0.333539 7.860001 -0.000000
v -0.235848 7.733693 -0.000000
v 0.235848 7.733693 -0.000000
v 0.333539 7.860001 0.000000
v 0.147824 8.660108 0.147824
v 0.000000 8.814966 -0.000000
v -0.209055 8.660108 -0.000000
v -0.235848 7.860001 -0.235848
v -0.166769 7.733693 -0.166770
v 0.166769 7.733693 -0.166769
v 0.235848 7.860001 -0.235848
v 0.209055 8.660108 -0.000000
v -0.147824 8.660108 -0.147824
v 0.000000 7.860001 -0.333539
v 0.000000 7.733693 -0.235848
v 0.147824 8.660108 -0.147824
v 0.000000 8.660108 -0.209055
v -0.000000 7.963639 0.202064
v -0.142881 7.963639 0.142881
v 0.142881 7.963639 0.142881
v -0.202064 7.963639 -0.000000
v 0.142881 7.963639 -0.142881
v 0.202064 7.963639 0.000000
v -0.142881 7.963639 -0.142881
v 0.000000 7.963639 -0.202064
v -0.000000 8.204697 0.203681
v -0.000000 8.263991 0.205079
v -0.000000 8.403285 0.206477
v -0.000000 8.461561 0.207876
v 0.144024 8.124698 0.144024
v 0.145013 8.263991 0.145013
v 0.146001 8.403285 0.146001
v 0.146990 8.542579 0.146990
v 0.144024 8.204697 -0.144024
v 0.145013 8.263991 -0.145013
v 0.146002 8.403285 -0.146002
v 0.146990 8.461561 -0.146990
v -0.144024 8.124698 -0.144024
v -0.145013 8.263991 -0.145013
v -0.146002 8.403285 -0.146002
v -0.146990 8.542579 -0.146990
v -0.146990 8.461562 0.146990
v -0.146002 8.403285 0.146001
v -0.145013 8.263991 0.145013
v -0.144024 8.204698 0.144024
v -0.207876 8.542580 -0.000000
v -0.206477 8.403285 -0.000000
v -0.205079 8.263991 -0.000000
v -0.203681 8.124698 -0.000000
v 0.207876 8.542580 -0.000000
v 0.206477 8.403285 -0.000000
v 0.205079 8.263991 -0.000000
v 0.203681 8.124698 -0.000000
v 0.000000 8.461562 -0.207876
v 0.000000 8.403285 -0.206477
v 0.000000 8.263991 -0.205079
v 0.000000 8.204698 -0.203681
v -0.075719 8.122850 0.386482
v -0.075719 8.262145 0.387880
v -0.075719 8.401438 0.389278
v -0.075719 8.540731 0.390676
v 0.219743 8.122850 -0.326825
v 0.220731 8.262145 -0.327814
v 0.221720 8.401438 -0.328802
v 0.222709 8.540731 -0.329791
v -0.222709 8.540732 0.329791
v -0.221720 8.401438 0.328802
v -0.220731 8.262145 0.327814
v -0.219743 8.122851 0.326825
v 0.075719 8.540732 -0.390676
v 0.075719 8.401438 -0.389278
v 0.075719 8.262145 -0.387880
v 0.075719 8.122851 -0.386482
v -0.205137 8.044168 0.205137
v -0.290108 8.044168 -0.000000
v 0.290107 8.044168 0.000000
v 0.000000 8.044168 -0.290108
v -0.000000 8.044168 0.290108
v 0.205137 8.044168 0.205137
v 0.205137 8.044168 -0.205137
v -0.205137 8.044168 -0.205137
v -0.000000 8.638739 0.281935
v 0.199358 8.638739 0.199358
v 0.199358 8.638739 -0.199358
v -0.199358 8.638739 -0.199358
v -0.199358 8.638739 0.199358
v -0.281935 8.638739 -0.000000
v 0.281935 8.638739 -0.000000
v 0.000000 8.638739 -0.281935
vn -0.6386 0.4292 0.6387
vn -0.5459 0.6356 0.5459
vn -0.0000 0.6356 0.7721
vn -0.0000 0.4292 0.9032
vn -0.0000 0.4166 0.9091
vn -0.6428 0.4166 0.6428
vn -0.9032 0.4292 -0.0000
vn -0.7720 0.6356 -0.0000
vn -0.4886 0.7228 0.4886
vn -0.0000 0.7228 0.6910
vn 0.5459 0.6356 0.5459
vn 0.6387 0.4292 0.6386
vn -0.9091 0.4166 -0.0000
vn 0.6428 0.4166 0.6428
vn -0.7071 -0.0029 0.7071
vn -0.0000 -0.0029 1.0000
vn -0.6386 0.4292 -0.6386
vn -0.5459 0.6356 -0.5459
vn -0.6910 0.7228 -0.0000
vn -0.7055 -0.0665 0.7055
vn -0.0000 -0.0665 0.9978
vn 0.4886 0.7228 0.4886
vn 0.7721 0.6356 -0.0000
vn 0.9032 0.4292 -0.0000
vn -0.6428 0.4166 -0.6428
vn -1.0000 -0.0029 -0.0000
vn 0.9091 0.4166 -0.0000
vn 0.7071 -0.0029 0.7071
vn -0.0000 0.4292 -0.9032
vn -0.0000 0.6356 -0.7721
vn -0.4886 0.7228 -0.4886
vn -0.9978 -0.0665 -0.0000
vn -0.5510 -0.6268 0.5510
vn -0.0000 -0.6268 0.7792
vn 0.7055 -0.0665 0.7055
vn 0.6910 0.7228 -0.0000
vn 0.5459 0.6356 -0.5459
vn 0.6386 0.4292 -0.6387
vn -0.0000 0.4166 -0.9091
vn -0.7071 -0.0029 -0.7071
vn 0.6428 0.4166 -0.6428
vn 1.0000 -0.0029 -0.0000
vn -0.0000 0.7228 -0.6910
vn -0.7055 -0.0665 -0.7055
vn -0.7792 -0.6268 -0.0000
vn -0.5109 0.6914 0.5109
vn -0.0000 0.6914 0.7225
vn 0.5510 -0.6268 0.5510
vn 0.9978 -0.0665 -0.0000
vn 0.4886 0.7228 -0.4886
vn -0.0000 -0.0029 -1.0000
vn 0.7071 -0.0029 -0.7071
vn -0.0000 -0.0665 -0.9978
vn -0.5510 -0.6268 -0.5510
vn -0.7225 0.6914 -0.0000
vn -0.0000 0.7323 0.6810
vn -0.4816 0.7323 0.4816
vn 0.5109 0.6914 0.5109
vn 0.7792 -0.6268 -0.0000
vn 0.7055 -0.0665 -0.7055
vn -0.0000 -0.6268 -0.7792
vn -0.5109 0.6914 -0.5109
vn -0.6810 0.7323 -0.0000
vn -0.0000 0.7071 0.7071
vn -0.5000 0.7071 0.5000
vn 0.4816 0.7323 0.4816
vn 0.7225 0.6914 -0.0000
vn 0.5510 -0.6268 -0.5510
vn -0.0000 0.6914 -0.7225
vn -0.4816 0.7323 -0.4816
vn -0.7071 0.7071 -0.0000
vn -0.0000 0.1149 0.9934
vn -0.7024 0.1149 0.7024
vn 0.5000 0.7071 0.5000
vn 0.6810 0.7323 -0.0000
vn 0.5109 0.6914 -0.5109
vn -0.0000 0.7323 -0.6810
vn -0.5000 0.7071 -0.5000
vn -0.9934 0.1149 -0.0000
vn -0.0000 0.2857 0.9583
vn -0.6776 0.2857 0.6776
vn 0.7024 0.1149 0.7024
vn 0.7071 0.7071 -0.0000
vn 0.4816 0.7323 -0.4816
vn -0.0000 0.7071 -0.7071
vn -0.7024 0.1149 -0.7024
vn -0.9583 0.2857 -0.0000
vn -0.0000 0.6657 0.7463
vn -0.5277 0.6657 0.5277
vn 0.6776 0.2857 0.6776
vn 0.9934 0.1149 -0.0000
vn 0.5000 0.7071 -0.5000
vn -0.0000 0.1149 -0.9934
vn -0.6776 0.2857 -0.6776
vn -0.7463 0.6657 -0.0000
vn -0.0000 -0.4645 0.8856
vn -0.6262 -0.4645 0.6262
vn 0.5277 0.6657 0.5277
vn 0.9583 0.2857 -0.0000
vn 0.7024 0.1149 -0.7024
vn -0.0000 0.2857 -0.9583
vn -0.5277 0.6657 -0.5277
vn -0.8856 -0.4645 -0.0000
vn 0.8856 -0.4645 -0.0000
vn 0.6262 -0.4645 0.6262
vn -0.6262 -0.4645 -0.6262
vn -0.0000 -0.4645 -0.8856
vn 0.6262 -0.4645 -0.6262
vn 0.7463 0.6657 -0.0000
vn 0.6776 0.2857 -0.6776
vn -0.0000 0.6657 -0.7463
vn 0.5277 0.6657 -0.5277
vn -0.0000 -0.8065 0.5913
vn -0.0000 0.1048 0.9945
vn -0.7032 0.1048 0.7032
vn -0.4181 -0.8065 0.4181
vn 0.4181 -0.8065 0.4181
vn 0.7032 0.1048 0.7032
vn -0.0000 0.9125 0.4090
vn -0.2892 0.9125 0.2892
vn -0.9945 0.1048 -0.0000
vn -0.5913 -0.8065 -0.0000
vn 0.5913 -0.8065 -0.0000
vn 0.9945 0.1048 -0.0000
vn 0.2892 0.9125 0.2892
vn -0.0000 1.0000 -0.0000
vn -0.4090 0.9125 -0.0000
vn -0.7032 0.1048 -0.7032
vn -0.4181 -0.8065 -0.4181
vn 0.4181 -0.8065 -0.4181
vn 0.7032 0.1048 -0.7032
vn 0.4090 0.9125 -0.0000
vn -0.2892 0.9125 -0.2892
vn -0.0000 0.1048 -0.9945
vn -0.0000 -0.8065 -0.5913
vn 0.2892 0.9125 -0.2892
vn -0.0000 0.9125 -0.4090
vn -0.0000 0.0457 0.9990
vn -0.7064 0.0457 0.7064
vn 0.7064 0.0457 0.7064
vn -0.9990 0.0457 -0.0000
vn 0.7064 0.0457 -0.7064
vn 0.9990 0.0457 -0.0000
vn -0.7064 0.0457 -0.7064
vn -0.0000 0.0457 -0.9990
vn 0.5238 0.0054 0.8518
vn 0.7075 -0.0085 0.7066
vn 0.7066 -0.0086 0.7075
vn 0.5161 0.0417 0.8555
vn 0.6707 0.4119 0.6169
vn 0.7065 -0.0110 0.7076
vn 0.7077 -0.0111 0.7065
vn 0.6884 -0.3377 0.6419
vn 0.9727 0.0054 -0.2319
vn 1.0000 -0.0085 0.0007
vn 1.0000 -0.0086 -0.0006
vn 0.9699 0.0417 -0.2400
vn -0.6707 0.4119 -0.6169
vn -0.7065 -0.0110 -0.7076
vn -0.7077 -0.0111 -0.7065
vn -0.6884 -0.3377 -0.6419
vn -0.9699 0.0417 0.2400
vn -1.0000 -0.0086 0.0006
vn -1.0000 -0.0085 -0.0007
vn -0.9727 0.0054 0.2319
vn -0.9407 -0.3377 -0.0329
vn -0.9999 -0.0111 -0.0008
vn -0.9999 -0.0110 0.0008
vn -0.9105 0.4119 -0.0380
vn 0.9407 -0.3377 0.0329
vn 0.9999 -0.0111 0.0008
vn 0.9999 -0.0110 -0.0008
vn 0.9105 0.4119 0.0381
vn -0.5161 0.0417 -0.8555
vn -0.7066 -0.0086 -0.7075
vn -0.7075 -0.0085 -0.7066
vn -0.5238 0.0054 -0.8518
vn 0.3417 -0.6894 0.6387
vn 0.3830 -0.0098 0.9237
vn 0.3824 -0.0098 0.9239
vn 0.3401 0.6801 0.6495
vn 0.6932 -0.6894 -0.2100
vn 0.9240 -0.0098 -0.3824
vn 0.9237 -0.0098 -0.3829
vn 0.6997 0.6801 -0.2187
vn -0.6997 0.6801 0.2187
vn -0.9237 -0.0098 0.3829
vn -0.9240 -0.0098 0.3824
vn -0.6932 -0.6894 0.2100
vn -0.3401 0.6801 -0.6495
vn -0.3824 -0.0098 -0.9239
vn -0.3830 -0.0098 -0.9237
vn -0.3417 -0.6894 -0.6387
vn -0.7228 -0.1152 0.6813
vn -0.9980 -0.0596 -0.0223
vn 0.9980 -0.0596 0.0224
vn -0.0294 -0.1152 -0.9929
vn 0.0294 -0.1152 0.9929
vn 0.7215 -0.0596 0.6899
vn 0.7228 -0.1152 -0.6813
vn -0.7215 -0.0596 -0.6899
vn 0.0321 0.3491 0.9365
vn 0.6924 0.3044 0.6542
vn 0.6849 0.3491 -0.6396
vn -0.6924 0.3044 -0.6542
vn -0.6849 0.3491 0.6396
vn -0.9522 0.3044 -0.0270
vn 0.9522 0.3044 0.0270
vn -0.0321 0.3491 -0.9365
s 1
usemtl White_Pieces
f 1//1 2//2 3//3 4//4
f 1//1 4//4 5//5 6//6
f 7//7 8//8 2//2 1//1
f 9//9 10//10 3//3 2//2
f 4//4 3//3 11//11 12//12
f 7//7 1//1 6//6 13//13
f 4//4 12//12 14//14 5//5
f 15//15 6//6 5//5 16//16
f 17//17 18//18 8//8 7//7
f 19//19 9//9 2//2 8//8
f 20//20 21//21 10//10 9//9
f 10//10 22//22 11//11 3//3
f 12//12 11//11 23//23 24//24
f 17//17 7//7 13//13 25//25
f 26//26 13//13 6//6 15//15
f 12//12 24//24 27//27 14//14
f 16//16 5//5 14//14 28//28
f 29//29 30//30 18//18 17//17
f 31//31 19//19 8//8 18//18
f 32//32 20//20 9//9 19//19
f 33//33 34//34 21//21 20//20
f 21//21 35//35 22//22 10//10
f 22//22 36//36 23//23 11//11
f 24//24 23//23 37//37 38//38
f 29//29 17//17 25//25 39//39
f 40//40 25//25 13//13 26//26
f 24//24 38//38 41//41 27//27
f 28//28 14//14 27//27 42//42
f 38//38 37//37 30//30 29//29
f 43//43 31//31 18//18 30//30
f 44//44 32//32 19//19 31//31
f 45//45 33//33 20//20 32//32
f 46//46 47//47 34//34 33//33
f 34//34 48//48 35//35 21//21
f 35//35 49//49 36//36 22//22
f 36//36 50//50 37//37 23//23
f 38//38 29//29 39//39 41//41
f 51//51 39//39 25//25 40//40
f 42//42 27//27 41//41 52//52
f 50//50 43//43 30//30 37//37
f 53//53 44//44 31//31 43//43
f 54//54 45//45 32//32 44//44
f 55//55 46//46 33//33 45//45
f 56//56 47//47 46//46 57//57
f 47//47 58//58 48//48 34//34
f 48//48 59//59 49//49 35//35
f 49//49 60//60 50//50 36//36
f 52//52 41//41 39//39 51//51
f 60//60 53//53 43//43 50//50
f 61//61 54//54 44//44 53//53
f 62//62 55//55 45//45 54//54
f 57//57 46//46 55//55 63//63
f 64//64 56//56 57//57 65//65
f 66//66 58//58 47//47 56//56
f 58//58 67//67 59//59 48//48
f 59//59 68//68 60//60 49//49
f 68//68 61//61 53//53 60//60
f 69//69 62//62 54//54 61//61
f 63//63 55//55 62//62 70//70
f 65//65 57//57 63//63 71//71
f 72//72 64//64 65//65 73//73
f 74//74 66//66 56//56 64//64
f 75//75 67//67 58//58 66//66
f 67//67 76//76 68//68 59//59
f 76//76 69//69 61//61 68//68
f 70//70 62//62 69//69 77//77
f 71//71 63//63 70//70 78//78
f 73//73 65//65 71//71 79//79
f 80//80 72//72 73//73 81//81
f 82//82 74//74 64//64 72//72
f 83//83 75//75 66//66 74//74
f 84//84 76//76 67//67 75//75
f 77//77 69//69 76//76 84//84
f 78//78 70//70 77//77 85//85
f 79//79 71//71 78//78 86//86
f 81//81 73//73 79//79 87//87
f 88//88 80//80 81//81 89//89
f 90//90 82//82 72//72 80//80
f 91//91 83//83 74//74 82//82
f 92//92 84//84 75//75 83//83
f 85//85 77//77 84//84 92//92
f 86//86 78//78 85//85 93//93
f 87//87 79//79 86//86 94//94
f 89//89 81//81 87//87 95//95
f 96//96 88//88 89//89 97//97
f 98//98 90//90 80//80 88//88
f 99//99 91//91 82//82 90//90
f 100//100 92//92 83//83 91//91
f 93//93 85//85 92//92 100//100
f 94//94 86//86 93//93 101//101
f 95//95 87//87 94//94 102//102
f 97//97 89//89 95//95 103//103
f 104//104 105//105 96//96 97//97 103//103 106//106 107//107 108//108
f 105//105 98//98 88//88 96//96
f 109//109 99//99 90//90 98//98
f 110//110 100//100 91//91 99//99
f 101//101 93//93 100//100 110//110
f 102//102 94//94 101//101 111//111
f 103//103 95//95 102//102 106//106
f 108//108 112//112 109//109 104//104
f 104//104 109//109 98//98 105//105
f 106//106 102//102 111//111 107//107
f 107//107 111//111 112//112 108//108
f 112//112 110//110 99//99 109//109
f 111//111 101//101 110//110 112//112
f 113//113 114//114 115//115 116//116
f 16//16 113//113 116//116 15//15
f 117//117 118//118 114//114 113//113
f 202//202 119//119 120//120 206//206
f 116//116 115//115 121//121 122//122
f 28//28 117//117 113//113 16//16
f 15//15 116//116 122//122 26//26
f 123//123 124//124 118//118 117//117
f 203//203 125//125 119//119 202//202
f 119//119 126//126 120//120
f 206//206 120//120 127//127 207//207
f 122//122 121//121 128//128 129//129
f 42//42 123//123 117//117 28//28
f 26//26 122//122 129//129 40//40
f 130//130 131//131 124//124 123//123
f 208//208 132//132 125//125 203//203
f 125//125 126//126 119//119
f 120//120 126//126 127//127
f 207//207 127//127 133//133 205//205
f 129//129 128//128 134//134 135//135
f 52//52 130//130 123//123 42//42
f 40//40 129//129 135//135 51//51
f 135//135 134//134 131//131 130//130
f 204//204 136//136 132//132 208//208
f 132//132 126//126 125//125
f 127//127 126//126 133//133
f 205//205 133//133 137//137 209//209
f 51//51 135//135 130//130 52//52
f 209//209 137//137 136//136 204//204
f 136//136 126//126 132//132
f 133//133 126//126 137//137
f 137//137 126//126 136//136
f 134//134 145//145 142//142 131//131
f 128//128 144//144 145//145 134//134
f 131//131 142//142 143//143 124//124
f 121//121 141//141 144//144 128//128
f 124//124 143//143 140//140 118//118
f 115//115 139//139 141//141 121//121
f 118//118 140//140 138//138 114//114
f 114//114 138//138 139//139 115//115
f 197//197 177//177 154//154 200//200
f 155//155 154//154 182//182 183//183
f 177//177 176//176 192//192 193//193
f 146//146 147//147 179//179 178//178
f 201//201 158//158 177//177 197//197
f 158//158 159//159 176//176 177//177
f 159//159 160//160 175//175 176//176
f 160//160 161//161 174//174 175//175
f 200//200 154//154 173//173 196//196
f 154//154 155//155 172//172 173//173
f 155//155 156//156 171//171 172//172
f 156//156 157//157 170//170 171//171
f 195//195 169//169 158//158 201//201
f 169//169 168//168 159//159 158//158
f 168//168 167//167 160//160 159//159
f 167//167 166//166 161//161 160//160
f 196//196 173//173 150//150 199//199
f 173//173 172//172 151//151 150//150
f 172//172 171//171 152//152 151//151
f 171//171 170//170 153//153 152//152
f 194//194 165//165 169//169 195//195
f 165//165 164//164 168//168 169//169
f 164//164 163//163 167//167 168//168
f 163//163 162//162 166//166 167//167
f 199//199 150//150 146//146 198//198
f 150//150 151//151 147//147 146//146
f 151//151 152//152 148//148 147//147
f 152//152 153//153 149//149 148//148
f 198//198 146//146 165//165 194//194
f 165//165 146//146 178//178 189//189
f 176//176 175//175 191//191 192//192
f 175//175 174//174 190//190 191//191
f 193//193 192//192 183//183 182//182
f 192//192 191//191 184//184 183//183
f 191//191 190//190 185//185 184//184
f 178//178 179//179 188//188 189//189
f 179//179 180//180 187//187 188//188
f 180//180 181//181 186//186 187//187
f 147//147 148//148 180//180 179//179
f 162//162 163//163 187//187 186//186
f 154//154 177//177 193//193 182//182
f 156//156 155//155 183//183 184//184
f 148//148 149//149 181//181 180//180
f 163//163 164//164 188//188 187//187
f 157//157 156//156 184//184 185//185
f 149//149 162//162 186//186 181//181
f 164//164 165//165 189//189 188//188
f 174//174 157//157 185//185 190//190
f 138//138 198//198 194//194 139//139
f 140//140 199//199 198//198 138//138
f 139//139 194//194 195//195 141//141
f 143//143 196//196 199//199 140//140
f 141//141 195//195 201//201 144//144
f 142//142 200//200 196//196 143//143
f 144//144 201//201 197//197 145//145
f 145//145 197//197 200//200 142//142
f 174//174 209//209 204//204 157//157
f 161//161 205//205 209//209 174//174
f 157//157 204//204 208//208 170//170
f 166//166 207//207 205//205 161//161
f 170//170 208//208 203//203 153//153
f 162//162 206//206 207//207 166//166
f 153//153 203//203 202//202 149//149
f 149//149 202//202 206//206 162//162
